<mxfile host="www.draw.io" modified="2019-12-15T18:19:10.052Z" agent="Mozilla/5.0 (X11; Ubuntu; Linux x86_64; rv:71.0) Gecko/20100101 Firefox/71.0" etag="v9yEUzRppIp4uAosdFlT" version="12.4.2" type="github" pages="2">
  <diagram id="hWfJ3tbP-aSx8l4X1a3k" name="DFD#0">
    <mxGraphModel dx="3296" dy="1371" grid="1" gridSize="10" guides="1" tooltips="1" connect="1" arrows="0" fold="1" page="1" pageScale="1" pageWidth="827" pageHeight="1169" math="0" shadow="0">
      <root>
        <mxCell id="0"/>
        <mxCell id="1" parent="0"/>
        <mxCell id="Nse-1iG4SZK6SY5Vferj-6" style="edgeStyle=orthogonalEdgeStyle;rounded=0;orthogonalLoop=1;jettySize=auto;html=1;strokeWidth=13;" parent="1" source="Nse-1iG4SZK6SY5Vferj-3" target="Nse-1iG4SZK6SY5Vferj-4" edge="1">
          <mxGeometry relative="1" as="geometry"/>
        </mxCell>
        <mxCell id="Nse-1iG4SZK6SY5Vferj-10" style="edgeStyle=orthogonalEdgeStyle;rounded=0;orthogonalLoop=1;jettySize=auto;html=1;strokeWidth=13;" parent="1" source="Nse-1iG4SZK6SY5Vferj-3" edge="1">
          <mxGeometry relative="1" as="geometry">
            <mxPoint x="390" y="349" as="targetPoint"/>
            <Array as="points">
              <mxPoint x="-650" y="280"/>
              <mxPoint x="390" y="280"/>
              <mxPoint x="390" y="349"/>
            </Array>
          </mxGeometry>
        </mxCell>
        <mxCell id="Nse-1iG4SZK6SY5Vferj-29" style="edgeStyle=orthogonalEdgeStyle;rounded=0;jumpStyle=none;orthogonalLoop=1;jettySize=auto;html=1;entryX=0.25;entryY=0;entryDx=0;entryDy=0;strokeWidth=13;" parent="1" source="Nse-1iG4SZK6SY5Vferj-4" target="Nse-1iG4SZK6SY5Vferj-3" edge="1">
          <mxGeometry relative="1" as="geometry">
            <mxPoint x="479" y="360" as="sourcePoint"/>
            <Array as="points">
              <mxPoint x="441" y="89"/>
              <mxPoint x="-723" y="89"/>
            </Array>
          </mxGeometry>
        </mxCell>
        <mxCell id="Nse-1iG4SZK6SY5Vferj-3" value="&lt;font style=&quot;font-size: 75px&quot;&gt;User&lt;/font&gt;" style="whiteSpace=wrap;html=1;aspect=fixed;rounded=0;glass=0;comic=0;shadow=1;" parent="1" vertex="1">
          <mxGeometry x="-790" y="370" width="270" height="270" as="geometry"/>
        </mxCell>
        <mxCell id="Nse-1iG4SZK6SY5Vferj-25" style="edgeStyle=orthogonalEdgeStyle;rounded=0;jumpStyle=none;orthogonalLoop=1;jettySize=auto;html=1;exitX=0.5;exitY=1;exitDx=0;exitDy=0;strokeWidth=13;entryX=0.5;entryY=1;entryDx=0;entryDy=0;" parent="1" source="Nse-1iG4SZK6SY5Vferj-4" target="Nse-1iG4SZK6SY5Vferj-3" edge="1">
          <mxGeometry relative="1" as="geometry">
            <mxPoint x="-660" y="770" as="targetPoint"/>
            <Array as="points">
              <mxPoint x="424" y="760"/>
              <mxPoint x="-656" y="760"/>
            </Array>
          </mxGeometry>
        </mxCell>
        <mxCell id="Nse-1iG4SZK6SY5Vferj-4" value="&lt;font style=&quot;font-size: 70px&quot;&gt;Process system&lt;/font&gt;" style="ellipse;whiteSpace=wrap;html=1;aspect=fixed;" parent="1" vertex="1">
          <mxGeometry x="270" y="350" width="310" height="310" as="geometry"/>
        </mxCell>
        <mxCell id="Nse-1iG4SZK6SY5Vferj-8" style="edgeStyle=orthogonalEdgeStyle;rounded=0;orthogonalLoop=1;jettySize=auto;html=1;strokeWidth=13;entryX=0;entryY=0.5;entryDx=0;entryDy=0;exitX=1;exitY=0.5;exitDx=0;exitDy=0;" parent="1" source="Nse-1iG4SZK6SY5Vferj-4" target="Nse-1iG4SZK6SY5Vferj-5" edge="1">
          <mxGeometry relative="1" as="geometry">
            <mxPoint x="1200" y="590" as="sourcePoint"/>
            <mxPoint x="1340" y="510" as="targetPoint"/>
          </mxGeometry>
        </mxCell>
        <mxCell id="Nse-1iG4SZK6SY5Vferj-5" value="&lt;font style=&quot;font-size: 75px&quot;&gt;Admin&lt;/font&gt;" style="whiteSpace=wrap;html=1;aspect=fixed;" parent="1" vertex="1">
          <mxGeometry x="1360" y="370" width="270" height="270" as="geometry"/>
        </mxCell>
        <mxCell id="Nse-1iG4SZK6SY5Vferj-9" value="&lt;font style=&quot;font-size: 45px&quot;&gt;Send location&lt;br&gt;&lt;/font&gt;" style="text;html=1;align=center;verticalAlign=middle;resizable=0;points=[];;autosize=1;" parent="1" vertex="1">
          <mxGeometry x="-285" y="460" width="290" height="30" as="geometry"/>
        </mxCell>
        <mxCell id="Nse-1iG4SZK6SY5Vferj-11" value="&lt;div&gt;&lt;font style=&quot;font-size: 45px&quot;&gt;Send message&lt;/font&gt;&lt;/div&gt;" style="text;html=1;align=center;verticalAlign=middle;resizable=0;points=[];;autosize=1;" parent="1" vertex="1">
          <mxGeometry x="-300" y="300" width="320" height="30" as="geometry"/>
        </mxCell>
        <mxCell id="Nse-1iG4SZK6SY5Vferj-26" value="z" style="text;html=1;align=center;verticalAlign=middle;resizable=0;points=[];;autosize=1;" parent="1" vertex="1">
          <mxGeometry x="-143" y="689" width="20" height="20" as="geometry"/>
        </mxCell>
        <mxCell id="Nse-1iG4SZK6SY5Vferj-27" value="&lt;div&gt;&lt;font style=&quot;font-size: 45px&quot;&gt;Receive message&lt;/font&gt;&lt;/div&gt;" style="text;html=1;align=center;verticalAlign=middle;resizable=0;points=[];;autosize=1;" parent="1" vertex="1">
          <mxGeometry x="-295" y="700" width="370" height="30" as="geometry"/>
        </mxCell>
        <mxCell id="Nse-1iG4SZK6SY5Vferj-31" value="&lt;div&gt;&lt;font style=&quot;font-size: 45px&quot;&gt;Accept mission&lt;/font&gt;&lt;/div&gt;" style="text;html=1;align=center;verticalAlign=middle;resizable=0;points=[];;autosize=1;" parent="1" vertex="1">
          <mxGeometry x="-270" y="120" width="320" height="30" as="geometry"/>
        </mxCell>
        <mxCell id="Nse-1iG4SZK6SY5Vferj-32" style="edgeStyle=orthogonalEdgeStyle;rounded=0;jumpStyle=none;orthogonalLoop=1;jettySize=auto;html=1;strokeWidth=13;exitX=0.5;exitY=1;exitDx=0;exitDy=0;" parent="1" source="Nse-1iG4SZK6SY5Vferj-5" edge="1">
          <mxGeometry relative="1" as="geometry">
            <mxPoint x="1421" y="640" as="sourcePoint"/>
            <mxPoint x="476" y="650" as="targetPoint"/>
            <Array as="points">
              <mxPoint x="1475" y="940"/>
              <mxPoint x="475" y="940"/>
            </Array>
          </mxGeometry>
        </mxCell>
        <mxCell id="Nse-1iG4SZK6SY5Vferj-33" value="&lt;div&gt;&lt;font style=&quot;font-size: 45px&quot;&gt;Make mission&lt;/font&gt;&lt;/div&gt;" style="text;html=1;align=center;verticalAlign=middle;resizable=0;points=[];;autosize=1;" parent="1" vertex="1">
          <mxGeometry x="826.33" y="890" width="290" height="30" as="geometry"/>
        </mxCell>
        <mxCell id="Nse-1iG4SZK6SY5Vferj-34" value="&lt;font style=&quot;font-size: 45px&quot;&gt;Check route&lt;br&gt;&lt;/font&gt;" style="text;html=1;align=center;verticalAlign=middle;resizable=0;points=[];;autosize=1;" parent="1" vertex="1">
          <mxGeometry x="830" y="460" width="260" height="30" as="geometry"/>
        </mxCell>
        <mxCell id="Nse-1iG4SZK6SY5Vferj-35" style="edgeStyle=orthogonalEdgeStyle;rounded=0;orthogonalLoop=1;jettySize=auto;html=1;strokeWidth=13;" parent="1" source="Nse-1iG4SZK6SY5Vferj-4" edge="1">
          <mxGeometry relative="1" as="geometry">
            <mxPoint x="518.5742857142857" y="850.9999999999998" as="sourcePoint"/>
            <mxPoint x="1421" y="640" as="targetPoint"/>
            <Array as="points">
              <mxPoint x="518" y="760"/>
              <mxPoint x="1421" y="760"/>
              <mxPoint x="1421" y="640"/>
            </Array>
          </mxGeometry>
        </mxCell>
        <mxCell id="Nse-1iG4SZK6SY5Vferj-36" value="Text" style="text;html=1;align=center;verticalAlign=middle;resizable=0;points=[];;autosize=1;" parent="1" vertex="1">
          <mxGeometry x="1066" y="1213" width="40" height="20" as="geometry"/>
        </mxCell>
        <mxCell id="Nse-1iG4SZK6SY5Vferj-37" value="&lt;div&gt;&lt;font style=&quot;font-size: 45px&quot;&gt;Receive message&lt;/font&gt;&lt;/div&gt;" style="text;html=1;align=center;verticalAlign=middle;resizable=0;points=[];;autosize=1;" parent="1" vertex="1">
          <mxGeometry x="800" y="709" width="370" height="30" as="geometry"/>
        </mxCell>
        <mxCell id="Nse-1iG4SZK6SY5Vferj-38" style="edgeStyle=orthogonalEdgeStyle;rounded=0;jumpStyle=none;orthogonalLoop=1;jettySize=auto;html=1;exitX=0.25;exitY=0;exitDx=0;exitDy=0;strokeWidth=13;" parent="1" source="Nse-1iG4SZK6SY5Vferj-5" target="Nse-1iG4SZK6SY5Vferj-4" edge="1">
          <mxGeometry relative="1" as="geometry">
            <mxPoint x="510" y="370" as="targetPoint"/>
            <mxPoint x="1590.333333333334" y="94" as="sourcePoint"/>
            <Array as="points">
              <mxPoint x="1427" y="240"/>
              <mxPoint x="510" y="240"/>
            </Array>
          </mxGeometry>
        </mxCell>
        <mxCell id="Nse-1iG4SZK6SY5Vferj-39" value="&lt;div&gt;&lt;font style=&quot;font-size: 45px&quot;&gt;Send message&lt;/font&gt;&lt;/div&gt;" style="text;html=1;align=center;verticalAlign=middle;resizable=0;points=[];;autosize=1;" parent="1" vertex="1">
          <mxGeometry x="796.3299999999999" y="260" width="320" height="30" as="geometry"/>
        </mxCell>
        <mxCell id="Nse-1iG4SZK6SY5Vferj-40" value="&lt;font style=&quot;font-size: 31px&quot;&gt;#0&lt;/font&gt;" style="text;html=1;align=center;verticalAlign=middle;resizable=0;points=[];;autosize=1;" parent="1" vertex="1">
          <mxGeometry x="400" y="380" width="50" height="30" as="geometry"/>
        </mxCell>
      </root>
    </mxGraphModel>
  </diagram>
  <diagram id="HvWyB35Y6OLB37hRbpMY" name="Page-2">
    <mxGraphModel dx="4625" dy="1920" grid="1" gridSize="10" guides="1" tooltips="1" connect="1" arrows="1" fold="1" page="1" pageScale="1" pageWidth="1169" pageHeight="827" math="0" shadow="0">
      <root>
        <mxCell id="SV0YXPjvwZ40TzLiR3c7-0"/>
        <mxCell id="SV0YXPjvwZ40TzLiR3c7-1" parent="SV0YXPjvwZ40TzLiR3c7-0"/>
        <mxCell id="KQJYFwXWO-wK3uOLnQWq-4" style="edgeStyle=orthogonalEdgeStyle;rounded=0;orthogonalLoop=1;jettySize=auto;html=1;entryX=0.5;entryY=0;entryDx=0;entryDy=0;strokeWidth=7;" edge="1" parent="SV0YXPjvwZ40TzLiR3c7-1" source="KQJYFwXWO-wK3uOLnQWq-0" target="KQJYFwXWO-wK3uOLnQWq-3">
          <mxGeometry relative="1" as="geometry">
            <Array as="points">
              <mxPoint x="-793" y="610"/>
              <mxPoint x="-793" y="610"/>
            </Array>
          </mxGeometry>
        </mxCell>
        <mxCell id="KQJYFwXWO-wK3uOLnQWq-15" style="edgeStyle=orthogonalEdgeStyle;rounded=0;orthogonalLoop=1;jettySize=auto;html=1;entryX=0;entryY=0.5;entryDx=0;entryDy=0;strokeWidth=7;" edge="1" parent="SV0YXPjvwZ40TzLiR3c7-1" source="KQJYFwXWO-wK3uOLnQWq-0" target="KQJYFwXWO-wK3uOLnQWq-12">
          <mxGeometry relative="1" as="geometry"/>
        </mxCell>
        <mxCell id="KQJYFwXWO-wK3uOLnQWq-0" value="&lt;font style=&quot;font-size: 57px&quot;&gt;User&lt;/font&gt;" style="whiteSpace=wrap;html=1;aspect=fixed;" vertex="1" parent="SV0YXPjvwZ40TzLiR3c7-1">
          <mxGeometry x="-930" y="230" width="260" height="260" as="geometry"/>
        </mxCell>
        <mxCell id="KQJYFwXWO-wK3uOLnQWq-8" style="edgeStyle=orthogonalEdgeStyle;rounded=0;orthogonalLoop=1;jettySize=auto;html=1;entryX=1;entryY=0.5;entryDx=0;entryDy=0;strokeWidth=7;" edge="1" parent="SV0YXPjvwZ40TzLiR3c7-1" source="KQJYFwXWO-wK3uOLnQWq-1" target="KQJYFwXWO-wK3uOLnQWq-7">
          <mxGeometry relative="1" as="geometry">
            <Array as="points">
              <mxPoint x="-81" y="1406"/>
              <mxPoint x="-421" y="1406"/>
            </Array>
          </mxGeometry>
        </mxCell>
        <mxCell id="KQJYFwXWO-wK3uOLnQWq-18" style="edgeStyle=orthogonalEdgeStyle;rounded=0;orthogonalLoop=1;jettySize=auto;html=1;entryX=1;entryY=0.5;entryDx=0;entryDy=0;strokeWidth=7;" edge="1" parent="SV0YXPjvwZ40TzLiR3c7-1" source="KQJYFwXWO-wK3uOLnQWq-1" target="KQJYFwXWO-wK3uOLnQWq-16">
          <mxGeometry relative="1" as="geometry">
            <Array as="points">
              <mxPoint x="-89" y="360"/>
            </Array>
          </mxGeometry>
        </mxCell>
        <mxCell id="KQJYFwXWO-wK3uOLnQWq-41" style="edgeStyle=orthogonalEdgeStyle;rounded=0;orthogonalLoop=1;jettySize=auto;html=1;entryX=0.004;entryY=0.592;entryDx=0;entryDy=0;entryPerimeter=0;strokeWidth=7;" edge="1" parent="SV0YXPjvwZ40TzLiR3c7-1" source="KQJYFwXWO-wK3uOLnQWq-1" target="KQJYFwXWO-wK3uOLnQWq-37">
          <mxGeometry relative="1" as="geometry">
            <Array as="points">
              <mxPoint x="101" y="1058"/>
            </Array>
          </mxGeometry>
        </mxCell>
        <mxCell id="KQJYFwXWO-wK3uOLnQWq-1" value="D1" style="dashed=0;whitespace=wrap;shape=mxgraph.dfd.dataStoreID;align=left;spacingLeft=3;points=[[0,0],[0.5,0],[1,0],[0,0.5],[1,0.5],[0,1],[0.5,1],[1,1]];autosize=0;collapsible=0;container=0;spacingTop=0;html=1;" vertex="1" parent="SV0YXPjvwZ40TzLiR3c7-1">
          <mxGeometry x="-140" y="750" width="300" height="150" as="geometry"/>
        </mxCell>
        <mxCell id="KQJYFwXWO-wK3uOLnQWq-32" style="edgeStyle=orthogonalEdgeStyle;rounded=0;orthogonalLoop=1;jettySize=auto;html=1;entryX=0;entryY=0.5;entryDx=0;entryDy=0;strokeWidth=7;exitX=0.867;exitY=-0.067;exitDx=0;exitDy=0;exitPerimeter=0;" edge="1" parent="SV0YXPjvwZ40TzLiR3c7-1" source="KQJYFwXWO-wK3uOLnQWq-1" target="KQJYFwXWO-wK3uOLnQWq-31">
          <mxGeometry relative="1" as="geometry">
            <Array as="points">
              <mxPoint x="119" y="476"/>
            </Array>
          </mxGeometry>
        </mxCell>
        <mxCell id="KQJYFwXWO-wK3uOLnQWq-2" value="&lt;font style=&quot;font-size: 45px&quot;&gt;Database&lt;/font&gt;" style="text;html=1;align=center;verticalAlign=middle;resizable=0;points=[];;autosize=1;" vertex="1" parent="SV0YXPjvwZ40TzLiR3c7-1">
          <mxGeometry x="-60" y="810" width="210" height="30" as="geometry"/>
        </mxCell>
        <mxCell id="KQJYFwXWO-wK3uOLnQWq-5" style="edgeStyle=orthogonalEdgeStyle;rounded=0;orthogonalLoop=1;jettySize=auto;html=1;entryX=0;entryY=1;entryDx=0;entryDy=0;strokeWidth=7;" edge="1" parent="SV0YXPjvwZ40TzLiR3c7-1" source="KQJYFwXWO-wK3uOLnQWq-3" target="KQJYFwXWO-wK3uOLnQWq-1">
          <mxGeometry relative="1" as="geometry">
            <Array as="points">
              <mxPoint x="-141" y="1116"/>
            </Array>
          </mxGeometry>
        </mxCell>
        <mxCell id="KQJYFwXWO-wK3uOLnQWq-3" value="&lt;font style=&quot;font-size: 40px&quot;&gt;Send Message to Admin&lt;br&gt;&lt;/font&gt;" style="ellipse;whiteSpace=wrap;html=1;aspect=fixed;" vertex="1" parent="SV0YXPjvwZ40TzLiR3c7-1">
          <mxGeometry x="-920" y="990" width="250" height="250" as="geometry"/>
        </mxCell>
        <mxCell id="KQJYFwXWO-wK3uOLnQWq-9" style="edgeStyle=orthogonalEdgeStyle;rounded=0;orthogonalLoop=1;jettySize=auto;html=1;entryX=0.004;entryY=0.885;entryDx=0;entryDy=0;entryPerimeter=0;strokeWidth=7;" edge="1" parent="SV0YXPjvwZ40TzLiR3c7-1" source="KQJYFwXWO-wK3uOLnQWq-7" target="KQJYFwXWO-wK3uOLnQWq-0">
          <mxGeometry relative="1" as="geometry">
            <Array as="points">
              <mxPoint x="-1029" y="1406"/>
              <mxPoint x="-1029" y="460"/>
            </Array>
          </mxGeometry>
        </mxCell>
        <mxCell id="KQJYFwXWO-wK3uOLnQWq-7" value="&lt;font style=&quot;font-size: 40px&quot;&gt;Get Admin&#39;s Messages&lt;br&gt;&lt;/font&gt;" style="ellipse;whiteSpace=wrap;html=1;aspect=fixed;" vertex="1" parent="SV0YXPjvwZ40TzLiR3c7-1">
          <mxGeometry x="-670" y="1260" width="250" height="250" as="geometry"/>
        </mxCell>
        <mxCell id="KQJYFwXWO-wK3uOLnQWq-10" value="Text" style="text;html=1;align=center;verticalAlign=middle;resizable=0;points=[];;autosize=1;" vertex="1" parent="SV0YXPjvwZ40TzLiR3c7-1">
          <mxGeometry x="-473" y="1372" width="40" height="20" as="geometry"/>
        </mxCell>
        <mxCell id="KQJYFwXWO-wK3uOLnQWq-14" style="edgeStyle=orthogonalEdgeStyle;rounded=0;orthogonalLoop=1;jettySize=auto;html=1;entryX=0;entryY=0.5;entryDx=0;entryDy=0;strokeWidth=7;" edge="1" parent="SV0YXPjvwZ40TzLiR3c7-1" source="KQJYFwXWO-wK3uOLnQWq-12" target="KQJYFwXWO-wK3uOLnQWq-1">
          <mxGeometry relative="1" as="geometry"/>
        </mxCell>
        <mxCell id="KQJYFwXWO-wK3uOLnQWq-12" value="&lt;font style=&quot;font-size: 40px&quot;&gt;Send location&lt;br&gt;&lt;/font&gt;" style="ellipse;whiteSpace=wrap;html=1;aspect=fixed;" vertex="1" parent="SV0YXPjvwZ40TzLiR3c7-1">
          <mxGeometry x="-560" y="520" width="250" height="250" as="geometry"/>
        </mxCell>
        <mxCell id="KQJYFwXWO-wK3uOLnQWq-19" style="edgeStyle=orthogonalEdgeStyle;rounded=0;orthogonalLoop=1;jettySize=auto;html=1;entryX=0.5;entryY=0;entryDx=0;entryDy=0;strokeWidth=7;" edge="1" parent="SV0YXPjvwZ40TzLiR3c7-1" source="KQJYFwXWO-wK3uOLnQWq-16" target="KQJYFwXWO-wK3uOLnQWq-0">
          <mxGeometry relative="1" as="geometry">
            <Array as="points">
              <mxPoint x="-341" y="100"/>
              <mxPoint x="-801" y="100"/>
            </Array>
          </mxGeometry>
        </mxCell>
        <mxCell id="KQJYFwXWO-wK3uOLnQWq-16" value="&lt;font style=&quot;font-size: 40px&quot;&gt;Accept mission&lt;br&gt;&lt;/font&gt;" style="ellipse;whiteSpace=wrap;html=1;aspect=fixed;" vertex="1" parent="SV0YXPjvwZ40TzLiR3c7-1">
          <mxGeometry x="-460" y="240" width="250" height="250" as="geometry"/>
        </mxCell>
        <mxCell id="KQJYFwXWO-wK3uOLnQWq-20" value="&lt;font style=&quot;font-size: 32px&quot;&gt;#2&lt;/font&gt;" style="text;html=1;align=center;verticalAlign=middle;resizable=0;points=[];;autosize=1;" vertex="1" parent="SV0YXPjvwZ40TzLiR3c7-1">
          <mxGeometry x="-350" y="260" width="50" height="30" as="geometry"/>
        </mxCell>
        <mxCell id="KQJYFwXWO-wK3uOLnQWq-21" value="&lt;div&gt;&lt;font style=&quot;font-size: 32px&quot;&gt;#3&lt;/font&gt;&lt;/div&gt;" style="text;html=1;align=center;verticalAlign=middle;resizable=0;points=[];;autosize=1;" vertex="1" parent="SV0YXPjvwZ40TzLiR3c7-1">
          <mxGeometry x="-460" y="550" width="50" height="30" as="geometry"/>
        </mxCell>
        <mxCell id="KQJYFwXWO-wK3uOLnQWq-22" value="&lt;font style=&quot;font-size: 32px&quot;&gt;#7&lt;/font&gt;" style="text;html=1;align=center;verticalAlign=middle;resizable=0;points=[];;autosize=1;" vertex="1" parent="SV0YXPjvwZ40TzLiR3c7-1">
          <mxGeometry x="-825" y="1010" width="50" height="30" as="geometry"/>
        </mxCell>
        <mxCell id="KQJYFwXWO-wK3uOLnQWq-23" value="&lt;font style=&quot;font-size: 32px&quot;&gt;#6&lt;/font&gt;" style="text;html=1;align=center;verticalAlign=middle;resizable=0;points=[];;autosize=1;" vertex="1" parent="SV0YXPjvwZ40TzLiR3c7-1">
          <mxGeometry x="-560" y="1290" width="50" height="30" as="geometry"/>
        </mxCell>
        <mxCell id="KQJYFwXWO-wK3uOLnQWq-30" style="edgeStyle=orthogonalEdgeStyle;rounded=0;orthogonalLoop=1;jettySize=auto;html=1;entryX=1;entryY=0.5;entryDx=0;entryDy=0;strokeWidth=7;" edge="1" parent="SV0YXPjvwZ40TzLiR3c7-1" source="KQJYFwXWO-wK3uOLnQWq-24" target="KQJYFwXWO-wK3uOLnQWq-25">
          <mxGeometry relative="1" as="geometry">
            <Array as="points">
              <mxPoint x="1099" y="296"/>
            </Array>
          </mxGeometry>
        </mxCell>
        <mxCell id="KQJYFwXWO-wK3uOLnQWq-35" style="edgeStyle=orthogonalEdgeStyle;rounded=0;orthogonalLoop=1;jettySize=auto;html=1;entryX=1;entryY=0.5;entryDx=0;entryDy=0;strokeWidth=7;" edge="1" parent="SV0YXPjvwZ40TzLiR3c7-1" source="KQJYFwXWO-wK3uOLnQWq-24" target="KQJYFwXWO-wK3uOLnQWq-34">
          <mxGeometry relative="1" as="geometry">
            <Array as="points">
              <mxPoint x="800" y="1444"/>
              <mxPoint x="800" y="1444"/>
            </Array>
          </mxGeometry>
        </mxCell>
        <mxCell id="KQJYFwXWO-wK3uOLnQWq-24" value="&lt;font style=&quot;font-size: 57px&quot;&gt;Admin&lt;/font&gt;" style="whiteSpace=wrap;html=1;aspect=fixed;" vertex="1" parent="SV0YXPjvwZ40TzLiR3c7-1">
          <mxGeometry x="890" y="1230" width="260" height="260" as="geometry"/>
        </mxCell>
        <mxCell id="KQJYFwXWO-wK3uOLnQWq-28" style="edgeStyle=orthogonalEdgeStyle;rounded=0;orthogonalLoop=1;jettySize=auto;html=1;entryX=0.623;entryY=-0.013;entryDx=0;entryDy=0;entryPerimeter=0;strokeWidth=7;" edge="1" parent="SV0YXPjvwZ40TzLiR3c7-1" source="KQJYFwXWO-wK3uOLnQWq-25" target="KQJYFwXWO-wK3uOLnQWq-1">
          <mxGeometry relative="1" as="geometry"/>
        </mxCell>
        <mxCell id="KQJYFwXWO-wK3uOLnQWq-25" value="&lt;font style=&quot;font-size: 40px&quot;&gt;Send Message&lt;br&gt;&lt;/font&gt;" style="ellipse;whiteSpace=wrap;html=1;aspect=fixed;" vertex="1" parent="SV0YXPjvwZ40TzLiR3c7-1">
          <mxGeometry x="780" y="170" width="250" height="250" as="geometry"/>
        </mxCell>
        <mxCell id="KQJYFwXWO-wK3uOLnQWq-33" style="edgeStyle=orthogonalEdgeStyle;rounded=0;orthogonalLoop=1;jettySize=auto;html=1;entryX=0.5;entryY=0;entryDx=0;entryDy=0;strokeWidth=7;" edge="1" parent="SV0YXPjvwZ40TzLiR3c7-1" source="KQJYFwXWO-wK3uOLnQWq-31" target="KQJYFwXWO-wK3uOLnQWq-24">
          <mxGeometry relative="1" as="geometry"/>
        </mxCell>
        <mxCell id="KQJYFwXWO-wK3uOLnQWq-31" value="&lt;font style=&quot;font-size: 40px&quot;&gt;Get User&#39;s Messages&lt;br&gt;&lt;/font&gt;" style="ellipse;whiteSpace=wrap;html=1;aspect=fixed;" vertex="1" parent="SV0YXPjvwZ40TzLiR3c7-1">
          <mxGeometry x="420" y="350" width="250" height="250" as="geometry"/>
        </mxCell>
        <mxCell id="KQJYFwXWO-wK3uOLnQWq-36" style="edgeStyle=orthogonalEdgeStyle;rounded=0;orthogonalLoop=1;jettySize=auto;html=1;entryX=0.5;entryY=1;entryDx=0;entryDy=0;strokeWidth=7;" edge="1" parent="SV0YXPjvwZ40TzLiR3c7-1" source="KQJYFwXWO-wK3uOLnQWq-34" target="KQJYFwXWO-wK3uOLnQWq-1">
          <mxGeometry relative="1" as="geometry">
            <Array as="points">
              <mxPoint x="11" y="1440"/>
            </Array>
          </mxGeometry>
        </mxCell>
        <mxCell id="KQJYFwXWO-wK3uOLnQWq-34" value="&lt;font style=&quot;font-size: 46px&quot;&gt;Make mission&lt;br&gt;&lt;/font&gt;" style="ellipse;whiteSpace=wrap;html=1;aspect=fixed;" vertex="1" parent="SV0YXPjvwZ40TzLiR3c7-1">
          <mxGeometry x="130" y="1330" width="250" height="250" as="geometry"/>
        </mxCell>
        <mxCell id="KQJYFwXWO-wK3uOLnQWq-42" style="edgeStyle=orthogonalEdgeStyle;rounded=0;orthogonalLoop=1;jettySize=auto;html=1;strokeWidth=7;" edge="1" parent="SV0YXPjvwZ40TzLiR3c7-1" source="KQJYFwXWO-wK3uOLnQWq-37">
          <mxGeometry relative="1" as="geometry">
            <mxPoint x="891" y="1360" as="targetPoint"/>
            <Array as="points">
              <mxPoint x="539" y="1360"/>
              <mxPoint x="891" y="1360"/>
            </Array>
          </mxGeometry>
        </mxCell>
        <mxCell id="KQJYFwXWO-wK3uOLnQWq-37" value="&lt;font style=&quot;font-size: 48px&quot;&gt;Check User Route&lt;br&gt;&lt;/font&gt;" style="ellipse;whiteSpace=wrap;html=1;aspect=fixed;" vertex="1" parent="SV0YXPjvwZ40TzLiR3c7-1">
          <mxGeometry x="410" y="910" width="250" height="250" as="geometry"/>
        </mxCell>
        <mxCell id="KQJYFwXWO-wK3uOLnQWq-43" value="&lt;font style=&quot;font-size: 32px&quot;&gt;#1&lt;/font&gt;" style="text;html=1;align=center;verticalAlign=middle;resizable=0;points=[];;autosize=1;" vertex="1" parent="SV0YXPjvwZ40TzLiR3c7-1">
          <mxGeometry x="230" y="1345" width="50" height="30" as="geometry"/>
        </mxCell>
        <mxCell id="KQJYFwXWO-wK3uOLnQWq-44" value="&lt;font style=&quot;font-size: 32px&quot;&gt;#4&lt;/font&gt;" style="text;html=1;align=center;verticalAlign=middle;resizable=0;points=[];;autosize=1;" vertex="1" parent="SV0YXPjvwZ40TzLiR3c7-1">
          <mxGeometry x="510" y="930" width="50" height="30" as="geometry"/>
        </mxCell>
        <mxCell id="KQJYFwXWO-wK3uOLnQWq-45" value="&lt;font style=&quot;font-size: 32px&quot;&gt;#8&lt;/font&gt;" style="text;html=1;align=center;verticalAlign=middle;resizable=0;points=[];;autosize=1;" vertex="1" parent="SV0YXPjvwZ40TzLiR3c7-1">
          <mxGeometry x="520" y="370" width="50" height="30" as="geometry"/>
        </mxCell>
        <mxCell id="KQJYFwXWO-wK3uOLnQWq-46" value="&lt;font style=&quot;font-size: 32px&quot;&gt;#5&lt;/font&gt;" style="text;html=1;align=center;verticalAlign=middle;resizable=0;points=[];;autosize=1;" vertex="1" parent="SV0YXPjvwZ40TzLiR3c7-1">
          <mxGeometry x="890" y="200" width="50" height="30" as="geometry"/>
        </mxCell>
      </root>
    </mxGraphModel>
  </diagram>
</mxfile>
